<?xml version="1.0" encoding="utf-8"?>
<!-- Generator: Adobe Illustrator 26.0.3, SVG Export Plug-In . SVG Version: 6.00 Build 0)  -->
<svg version="1.1" id="Layer_1" xmlns="http://www.w3.org/2000/svg" xmlns:xlink="http://www.w3.org/1999/xlink" x="0px" y="0px"
	 viewBox="0 0 1024.1 603.96" style="enable-background:new 0 0 1024.1 603.96;" xml:space="preserve">
<style type="text/css">
	.st0{fill:#1D3E35;}
	.st1{fill:#FFFFFF;}
	.st2{fill:#C8A271;}
</style>
<rect y="0" class="st0" width="1024.1" height="603.96"/>
<g>
	<g>
		<g>
			<g>
				<path class="st1" d="M238.92,352.27l45.85,48.8v-31.34c0-2.52-0.03-4.73-0.09-6.61c-0.06-1.89-0.15-3.52-0.27-4.9
					s-0.26-2.53-0.42-3.45c-0.16-0.92-0.33-1.69-0.51-2.32v-0.18h7.92v0.18c-0.18,0.62-0.34,1.39-0.49,2.32
					c-0.15,0.92-0.28,2.07-0.4,3.45c-0.12,1.38-0.21,3.01-0.27,4.9c-0.06,1.89-0.09,4.09-0.09,6.61V417h-1.56l-45.85-48.75v30.45
					c0,2.52,0.03,4.73,0.09,6.61c0.06,1.89,0.15,3.51,0.27,4.88s0.25,2.51,0.4,3.43c0.15,0.92,0.31,1.69,0.49,2.32v0.18h-7.92v-0.18
					c0.18-0.62,0.35-1.39,0.51-2.32c0.16-0.92,0.3-2.06,0.42-3.43c0.12-1.36,0.21-2.99,0.27-4.88c0.06-1.89,0.09-4.09,0.09-6.61
					v-28.98c0-2.52-0.03-4.73-0.09-6.61c-0.06-1.89-0.15-3.52-0.27-4.9s-0.26-2.53-0.42-3.45c-0.16-0.92-0.33-1.69-0.51-2.32v-0.18
					L238.92,352.27L238.92,352.27z"/>
				<path class="st1" d="M329.69,416.91c-3.29,0-6.38-0.52-9.26-1.56s-5.38-2.56-7.52-4.56c-2.14-2-3.82-4.48-5.06-7.44
					c-1.23-2.95-1.85-6.33-1.85-10.13c0-3.35,0.56-6.46,1.69-9.32c1.13-2.86,2.68-5.35,4.68-7.46c1.99-2.11,4.31-3.76,6.97-4.94
					c2.66-1.19,5.53-1.78,8.62-1.78c3.06,0,5.89,0.53,8.5,1.58c2.61,1.05,4.88,2.58,6.79,4.59c1.91,2,3.43,4.48,4.54,7.44
					c1.12,2.95,1.71,6.32,1.8,10.08c-3.35-0.06-6.71-0.1-10.06-0.13c-3.35-0.03-6.84-0.04-10.46-0.04c-2.58,0-5.1,0.02-7.54,0.04
					c-2.45,0.03-4.65,0.07-6.61,0.13c0.18,3.09,0.66,5.88,1.45,8.37c0.79,2.49,1.87,4.63,3.25,6.39s3.06,3.12,5.03,4.07
					c1.98,0.95,4.21,1.42,6.7,1.42c1.72,0,3.35-0.2,4.88-0.6c1.53-0.4,2.92-0.96,4.16-1.67c1.25-0.71,2.36-1.55,3.34-2.52
					c0.98-0.97,1.81-2.01,2.49-3.14l0.54,0.27l-3.29,7.92c-1.6,0.83-3.52,1.53-5.74,2.11C335.48,416.62,332.81,416.91,329.69,416.91
					z M323.77,389.75c2.97,0,5.94-0.01,8.93-0.02c2.99-0.02,5.69-0.07,8.12-0.16c-0.27-2.58-0.77-4.9-1.51-6.95
					c-0.74-2.05-1.69-3.78-2.85-5.21c-1.16-1.42-2.52-2.52-4.1-3.29s-3.31-1.16-5.21-1.16c-1.72,0-3.3,0.38-4.74,1.13
					c-1.44,0.76-2.7,1.85-3.76,3.28c-1.07,1.43-1.93,3.17-2.58,5.23c-0.65,2.06-1.04,4.41-1.16,7.06c1.33,0.06,2.75,0.09,4.23,0.09
					C320.62,389.75,322.17,389.75,323.77,389.75z"/>
				<path class="st1" d="M394.69,374.61l11.88,29.92l9.93-24.8c0.21-0.54,0.45-1.13,0.71-1.8c0.27-0.67,0.5-1.35,0.71-2.05
					c0.21-0.7,0.39-1.36,0.54-2c0.15-0.64,0.22-1.21,0.22-1.71c0-0.39-0.03-0.7-0.09-0.96c-0.06-0.25-0.12-0.42-0.18-0.51v-0.18
					h8.01v0.18c-0.54,0.56-1.18,1.49-1.94,2.78c-0.76,1.29-1.66,3.17-2.7,5.63L406,416.73h-2.54l-11.49-27.87l-11.48,27.87h-2.54
					l-14.6-35.44c-0.54-1.31-1.1-2.56-1.71-3.76c-0.61-1.21-1.19-2.28-1.74-3.23c-0.55-0.95-1.03-1.74-1.45-2.38
					c-0.42-0.64-0.7-1.05-0.84-1.23v-0.18h11.84v0.18c-0.06,0.15-0.11,0.37-0.13,0.67c-0.03,0.3-0.04,0.56-0.04,0.8
					c0,0.92,0.14,1.94,0.42,3.05c0.28,1.11,0.75,2.5,1.4,4.16l9.93,25.15L393,374.62L394.69,374.61L394.69,374.61z"/>
				<path class="st1" d="M527.08,408.63c0,0.33-0.04,0.67-0.11,1.03c-0.07,0.36-0.25,0.65-0.51,0.89c-1.33,1.01-2.78,1.94-4.34,2.78
					c-1.56,0.85-3.24,1.58-5.06,2.2c-1.81,0.62-3.76,1.1-5.85,1.45c-2.09,0.34-4.34,0.51-6.75,0.51c-5.4,0-10.33-0.79-14.78-2.38
					c-4.45-1.59-8.27-3.83-11.47-6.75c-3.19-2.91-5.66-6.4-7.41-10.48c-1.75-4.08-2.63-8.62-2.63-13.6c0-2.82,0.36-5.6,1.09-8.33
					s1.79-5.33,3.19-7.79c1.39-2.47,3.11-4.73,5.17-6.79c2.05-2.06,4.39-3.85,7.01-5.37c2.63-1.51,5.52-2.7,8.68-3.54
					c3.16-0.85,6.58-1.27,10.26-1.27c1.42,0,2.88,0.07,4.36,0.2c1.48,0.13,2.95,0.33,4.41,0.58c1.46,0.25,2.86,0.56,4.21,0.92
					c1.35,0.36,2.63,0.76,3.85,1.2l3.02,8.24l-0.36,0.18c-1.16-1.04-2.49-2-4.01-2.9s-3.13-1.66-4.85-2.32
					c-1.72-0.65-3.53-1.17-5.41-1.53c-1.89-0.37-3.79-0.56-5.72-0.56c-3.74,0-7.17,0.59-10.28,1.76s-5.8,2.87-8.03,5.09
					c-2.24,2.23-3.98,4.95-5.23,8.19c-1.25,3.24-1.87,6.91-1.87,11.04c0,4.54,0.59,8.75,1.78,12.64c1.19,3.89,2.95,7.26,5.3,10.1
					c2.34,2.85,5.28,5.08,8.79,6.7s7.62,2.43,12.31,2.43c2.08,0,3.93-0.16,5.56-0.49c1.63-0.32,3.01-0.73,4.14-1.22
					c1.13-0.49,1.98-1.02,2.56-1.6c0.58-0.58,0.87-1.1,0.87-1.58v-1.74c0-2.08-0.03-3.87-0.09-5.38c-0.06-1.51-0.15-2.83-0.27-3.94
					c-0.12-1.11-0.25-2.07-0.4-2.87c-0.15-0.8-0.33-1.55-0.54-2.23v-0.18h10.69v0.18c-0.18,0.62-0.35,1.36-0.51,2.2
					c-0.16,0.85-0.31,1.85-0.42,3c-0.12,1.16-0.21,2.52-0.27,4.07c-0.06,1.56-0.09,3.36-0.09,5.41L527.08,408.63L527.08,408.63z"/>
				<path class="st1" d="M540.79,393.22c0-3.35,0.62-6.46,1.87-9.32c1.24-2.86,2.96-5.35,5.14-7.46c2.18-2.11,4.75-3.76,7.72-4.94
					c2.97-1.19,6.16-1.78,9.57-1.78c3.35,0,6.51,0.56,9.46,1.67c2.95,1.12,5.53,2.7,7.72,4.74c2.2,2.05,3.92,4.54,5.19,7.48
					c1.26,2.94,1.89,6.23,1.89,9.88c0,3.06-0.54,6-1.6,8.82c-1.07,2.82-2.64,5.31-4.72,7.48c-2.08,2.17-4.63,3.89-7.63,5.19
					c-3.01,1.29-6.48,1.94-10.4,1.94c-3.33,0-6.46-0.55-9.39-1.65c-2.94-1.1-5.51-2.67-7.7-4.72c-2.2-2.05-3.93-4.54-5.21-7.46
					C541.43,400.16,540.79,396.87,540.79,393.22z M566.03,413.66c2.11,0,4.05-0.41,5.81-1.24c1.76-0.83,3.29-2.03,4.56-3.6
					s2.27-3.49,2.99-5.74c0.71-2.25,1.07-4.81,1.07-7.66c0-3.2-0.34-6.18-1.03-8.93c-0.68-2.75-1.7-5.12-3.05-7.13
					s-3.05-3.57-5.1-4.7c-2.05-1.13-4.44-1.69-7.17-1.69c-2.11,0-4.03,0.41-5.79,1.22c-1.75,0.81-3.27,2-4.56,3.54
					c-1.29,1.55-2.29,3.44-3.01,5.67c-0.71,2.24-1.07,4.79-1.07,7.63c0,3.2,0.35,6.19,1.05,8.95c0.7,2.76,1.73,5.16,3.1,7.19
					c1.37,2.03,3.06,3.62,5.1,4.77C560.96,413.09,563.33,413.66,566.03,413.66z"/>
				<path class="st1" d="M604.8,387.93c0-2.52-0.04-4.73-0.11-6.61c-0.07-1.89-0.16-3.51-0.27-4.88c-0.11-1.36-0.24-2.51-0.4-3.43
					c-0.16-0.92-0.33-1.69-0.51-2.32v-0.18h10.28v0.18c-0.24,0.68-0.44,1.51-0.6,2.49c-0.16,0.98-0.29,2.24-0.38,3.78
					c1.1-0.92,2.24-1.82,3.43-2.72c1.19-0.89,2.4-1.67,3.65-2.36c1.25-0.68,2.52-1.23,3.81-1.65c1.29-0.42,2.59-0.62,3.89-0.62
					c0.8,0,1.5,0.04,2.09,0.11c0.59,0.08,1.13,0.18,1.6,0.31c0.47,0.13,0.9,0.28,1.29,0.45c0.39,0.16,0.76,0.32,1.11,0.47l-2.18,8.5
					l-0.76-0.18c-0.36-1.31-1.02-2.35-2-3.14c-0.98-0.79-2.32-1.18-4.01-1.18c-0.92,0-1.89,0.16-2.9,0.49s-2.03,0.78-3.07,1.36
					c-1.04,0.58-2.08,1.24-3.11,2c-1.04,0.76-2.05,1.55-3.03,2.38c-0.06,0.86-0.09,1.8-0.09,2.81c0,1.01,0,2.08,0,3.2v11.49
					c0,2.52,0.03,4.73,0.09,6.61c0.06,1.89,0.15,3.51,0.27,4.88s0.25,2.51,0.4,3.43c0.15,0.92,0.31,1.69,0.49,2.32v0.18h-10.28
					v-0.18c0.18-0.62,0.35-1.39,0.51-2.32c0.16-0.92,0.3-2.06,0.4-3.43c0.11-1.36,0.2-2.99,0.27-4.88c0.07-1.89,0.11-4.09,0.11-6.61
					v-10.78H604.8z"/>
				<path class="st1" d="M646.03,366.96c0-2.52-0.04-4.73-0.11-6.61c-0.07-1.89-0.16-3.51-0.27-4.88c-0.11-1.36-0.24-2.51-0.4-3.43
					s-0.33-1.69-0.51-2.32v-0.18h10.28v0.18c-0.18,0.62-0.34,1.39-0.49,2.32c-0.15,0.92-0.28,2.06-0.4,3.43
					c-0.12,1.37-0.21,2.99-0.27,4.88c-0.06,1.89-0.09,4.09-0.09,6.61v22.17l14.56-13.05c2.55-2.23,3.83-4.08,3.83-5.56h10.33v0.18
					c-0.77,0.24-1.51,0.54-2.2,0.92c-0.7,0.37-1.39,0.81-2.09,1.31c-0.7,0.5-1.42,1.08-2.18,1.71c-0.76,0.64-1.58,1.36-2.47,2.16
					l-13.05,11.88l17.9,21.15c0.54,0.65,1.11,1.31,1.74,1.98c0.62,0.67,1.24,1.28,1.87,1.85c0.62,0.56,1.23,1.05,1.82,1.47
					c0.59,0.42,1.14,0.68,1.65,0.8v0.18h-12.9c0-0.77-0.2-1.57-0.6-2.4c-0.4-0.83-1.12-1.89-2.16-3.16l-16.03-19.05v7.21
					c0,2.52,0.03,4.73,0.09,6.61c0.06,1.89,0.15,3.51,0.27,4.88c0.12,1.37,0.25,2.51,0.4,3.43c0.15,0.92,0.31,1.69,0.49,2.32v0.18
					h-10.28v-0.18c0.18-0.62,0.35-1.39,0.51-2.32c0.16-0.92,0.3-2.06,0.4-3.43c0.11-1.36,0.2-2.99,0.27-4.88
					c0.07-1.89,0.11-4.09,0.11-6.61L646.03,366.96L646.03,366.96z"/>
				<path class="st1" d="M726.42,386.1c0-3.92-0.79-6.8-2.36-8.64s-3.68-2.76-6.32-2.76c-0.98,0-2.07,0.2-3.27,0.6
					s-2.43,0.94-3.69,1.62c-1.26,0.68-2.52,1.48-3.76,2.38c-1.24,0.9-2.4,1.86-3.47,2.87v16.52c0,2.52,0.03,4.73,0.09,6.61
					c0.06,1.89,0.15,3.51,0.27,4.88c0.12,1.37,0.25,2.51,0.4,3.43c0.15,0.92,0.31,1.69,0.49,2.32v0.18h-10.28v-0.18
					c0.18-0.62,0.35-1.39,0.51-2.32c0.16-0.92,0.3-2.06,0.4-3.43c0.11-1.36,0.2-2.99,0.27-4.88c0.07-1.89,0.11-4.09,0.11-6.61
					v-31.74c0-2.52-0.04-4.73-0.11-6.61c-0.07-1.89-0.16-3.51-0.27-4.88c-0.11-1.36-0.24-2.51-0.4-3.43s-0.33-1.69-0.51-2.32v-0.18
					h10.28v0.18c-0.18,0.62-0.34,1.39-0.49,2.32c-0.15,0.92-0.28,2.06-0.4,3.43c-0.12,1.37-0.21,2.99-0.27,4.88
					c-0.06,1.89-0.09,4.09-0.09,6.61v11.4c1.19-1.07,2.5-2.12,3.94-3.16c1.44-1.04,2.93-1.98,4.47-2.81s3.12-1.5,4.72-2
					c1.6-0.5,3.17-0.76,4.72-0.76c2.32,0,4.28,0.4,5.9,1.2c1.62,0.8,2.94,1.86,3.96,3.16c1.03,1.31,1.76,2.8,2.23,4.47
					c0.46,1.68,0.69,3.38,0.69,5.09v15.14c0,2.52,0.03,4.73,0.09,6.61c0.06,1.89,0.15,3.51,0.27,4.88c0.12,1.37,0.25,2.51,0.4,3.43
					c0.15,0.92,0.31,1.69,0.49,2.32v0.18h-10.28v-0.18c0.18-0.62,0.35-1.39,0.51-2.32c0.16-0.92,0.3-2.06,0.4-3.43
					c0.11-1.36,0.19-2.99,0.27-4.88c0.07-1.89,0.11-4.09,0.11-6.61V386.1H726.42z"/>
				<path class="st1" d="M749.48,402.98c0-2.34,0.48-4.38,1.45-6.1c0.97-1.72,2.25-3.19,3.85-4.41c1.6-1.22,3.43-2.2,5.47-2.96
					c2.05-0.76,4.17-1.35,6.37-1.78c2.2-0.43,4.36-0.73,6.5-0.89c2.14-0.16,4.1-0.26,5.88-0.29v-2.27c0-1.96-0.25-3.65-0.76-5.07
					c-0.5-1.42-1.22-2.61-2.14-3.54c-0.92-0.93-2.03-1.63-3.31-2.09s-2.71-0.69-4.25-0.69c-1.07,0-2.12,0.09-3.16,0.27
					c-1.04,0.18-2.11,0.47-3.23,0.89c-1.11,0.41-2.29,0.98-3.52,1.69c-1.23,0.71-2.56,1.62-3.98,2.72l-0.45-0.27l3.02-6.28
					c0.98-0.45,1.94-0.81,2.9-1.09c0.95-0.28,1.91-0.51,2.9-0.69c0.98-0.18,1.98-0.3,3.01-0.38c1.02-0.07,2.1-0.11,3.23-0.11
					c3.12,0,5.78,0.38,7.99,1.13c2.21,0.76,4.02,1.8,5.43,3.12c1.41,1.32,2.44,2.86,3.09,4.63s0.98,3.65,0.98,5.67v14.51
					c0,2.52,0.04,4.73,0.11,6.61c0.07,1.89,0.16,3.51,0.27,4.88c0.11,1.37,0.24,2.51,0.4,3.43c0.16,0.92,0.33,1.69,0.51,2.32v0.18
					h-9.84v-0.18c0.15-0.47,0.26-1.01,0.33-1.6c0.07-0.59,0.14-1.31,0.2-2.14c-0.62,0.54-1.36,1.08-2.2,1.65
					c-0.84,0.56-1.81,1.08-2.9,1.53c-1.08,0.46-2.29,0.83-3.6,1.11s-2.77,0.42-4.34,0.42c-5.17,0-9.16-1.21-11.97-3.63
					C750.89,410.86,749.48,407.43,749.48,402.98z M779,390.02c-2.7,0.03-5.3,0.18-7.79,0.47c-2.49,0.28-4.7,0.87-6.61,1.76
					c-1.91,0.89-3.44,2.16-4.59,3.81s-1.71,3.84-1.71,6.57c0,3.5,0.88,6.18,2.63,8.01c1.75,1.84,4.17,2.76,7.26,2.76
					c1.42,0,2.72-0.2,3.89-0.6c1.17-0.4,2.21-0.9,3.12-1.51c0.9-0.61,1.67-1.28,2.29-2c0.62-0.73,1.1-1.43,1.42-2.11
					c0.06-1.13,0.09-2.38,0.09-3.76s0-2.95,0-4.7L779,390.02L779,390.02z"/>
			</g>
		</g>
		<g>
			<g>
				<path class="st1" d="M314.06,463.04c0.13-0.2,0.28-0.48,0.45-0.86s0.3-0.86,0.4-1.43c0.13-0.84,0.28-1.79,0.44-2.85
					c0.16-1.05,0.33-2.16,0.51-3.32c0.17-1.16,0.35-2.34,0.52-3.55c0.17-1.21,0.35-2.4,0.51-3.58c0.16-1.18,0.32-2.31,0.47-3.4
					c0.15-1.09,0.28-2.09,0.41-2.99c0.12-0.9,0.22-1.69,0.3-2.36s0.13-1.17,0.17-1.51h2.3l11.38,21.27l11.28-21.27h1.72l2.97,21.48
					c0.08,0.68,0.17,1.26,0.27,1.74c0.09,0.48,0.2,0.89,0.29,1.24s0.19,0.62,0.28,0.85s0.18,0.41,0.26,0.55v0.07h-4.56v-0.07
					c0.06-0.13,0.12-0.35,0.17-0.65s0.08-0.66,0.08-1.08c0-0.16-0.01-0.32-0.02-0.48c-0.01-0.16-0.03-0.34-0.06-0.53l-2.3-17.33
					l-10.67,20.08l-1.25-0.15l-10.74-20.11c-0.42,2.86-0.79,5.5-1.1,7.92c-0.13,1.04-0.26,2.07-0.4,3.1
					c-0.13,1.03-0.25,1.99-0.35,2.88c-0.1,0.89-0.18,1.68-0.25,2.36c-0.06,0.68-0.09,1.18-0.09,1.51c0,0.41,0.01,0.77,0.03,1.08
					s0.05,0.58,0.07,0.8c0.04,0.25,0.07,0.47,0.11,0.67h-3.62V463.04z"/>
				<path class="st1" d="M371.1,456.79c0,1.59,0.32,2.76,0.95,3.51s1.48,1.12,2.56,1.12c0.39,0,0.82-0.08,1.3-0.25
					s0.98-0.38,1.49-0.65c0.51-0.27,1.03-0.59,1.54-0.95c0.51-0.36,0.99-0.75,1.42-1.16c0.02-0.35,0.04-0.72,0.04-1.11
					s0-0.81,0-1.26v-4.37c0-1.03-0.02-1.92-0.04-2.68s-0.07-1.43-0.11-1.98c-0.04-0.55-0.09-1.02-0.16-1.39
					c-0.07-0.37-0.13-0.69-0.21-0.94v-0.07h4.18v0.07c-0.07,0.25-0.14,0.57-0.2,0.94c-0.06,0.37-0.12,0.84-0.16,1.39
					c-0.05,0.55-0.08,1.22-0.11,1.98c-0.02,0.76-0.03,1.66-0.03,2.68v4.37c0,1.03,0.01,1.92,0.03,2.68
					c0.02,0.76,0.06,1.43,0.11,1.98c0.05,0.55,0.1,1.02,0.16,1.39s0.13,0.69,0.2,0.94v0.07h-4.18v-0.07
					c0.07-0.3,0.15-0.69,0.23-1.15c0.08-0.47,0.13-1.08,0.17-1.85c-0.5,0.42-1.03,0.84-1.6,1.25c-0.57,0.41-1.17,0.78-1.79,1.1
					c-0.62,0.32-1.25,0.59-1.88,0.79c-0.63,0.2-1.26,0.3-1.87,0.3c-0.94,0-1.74-0.16-2.39-0.49c-0.66-0.32-1.19-0.75-1.61-1.28
					c-0.42-0.53-0.72-1.13-0.9-1.81c-0.19-0.68-0.28-1.37-0.28-2.08v-6.15c0-1.03-0.01-1.92-0.03-2.68
					c-0.02-0.76-0.06-1.43-0.11-1.98c-0.05-0.55-0.1-1.02-0.16-1.39c-0.06-0.37-0.13-0.69-0.2-0.94v-0.07h4.18v0.07
					c-0.07,0.25-0.14,0.57-0.2,0.94s-0.11,0.84-0.16,1.39c-0.05,0.55-0.08,1.22-0.11,1.98c-0.02,0.76-0.04,1.66-0.04,2.68v5.11
					H371.1z"/>
				<path class="st1" d="M404.01,443.15c0-1.03-0.02-1.92-0.04-2.68c-0.03-0.76-0.07-1.42-0.11-1.98c-0.04-0.55-0.09-1.02-0.16-1.39
					s-0.13-0.69-0.21-0.94v-0.07h4.18v0.07c-0.07,0.25-0.14,0.57-0.2,0.94s-0.12,0.84-0.16,1.39c-0.05,0.55-0.08,1.22-0.11,1.98
					c-0.02,0.76-0.03,1.66-0.03,2.68v12.89c0,1.03,0.01,1.92,0.03,2.68c0.02,0.76,0.06,1.43,0.11,1.98c0.05,0.55,0.1,1.02,0.16,1.39
					s0.13,0.69,0.2,0.94v0.07h-4.18v-0.07c0.07-0.25,0.14-0.56,0.21-0.94s0.12-0.84,0.16-1.39c0.04-0.55,0.08-1.22,0.11-1.98
					s0.04-1.66,0.04-2.68V443.15z"/>
				<path class="st1" d="M434.2,462.05c0.36,0,0.72-0.07,1.08-0.2c0.36-0.13,0.7-0.31,1.03-0.54c0.33-0.23,0.65-0.49,0.96-0.79
					c0.31-0.3,0.59-0.61,0.86-0.93l0.18,0.09l-1.18,2.91c-0.15,0.07-0.32,0.16-0.54,0.26s-0.46,0.2-0.76,0.29
					c-0.3,0.09-0.64,0.17-1.04,0.23c-0.4,0.07-0.87,0.1-1.41,0.1c-1.61,0-2.87-0.44-3.77-1.31c-0.9-0.88-1.35-2.24-1.35-4.1v-12.06
					l-3.04,0.11v-1.59c0.37,0.02,0.82,0.04,1.34,0.06c0.52,0.01,1.08,0.02,1.7,0.02c-0.01-0.86-0.03-1.61-0.06-2.27
					c-0.03-0.66-0.07-1.23-0.11-1.72c-0.04-0.49-0.09-0.9-0.15-1.24c-0.06-0.34-0.12-0.62-0.18-0.85v-0.07h4.18v0.07
					c-0.07,0.23-0.14,0.51-0.2,0.85c-0.06,0.33-0.11,0.75-0.15,1.23c-0.04,0.48-0.08,1.05-0.11,1.71c-0.03,0.66-0.05,1.42-0.06,2.29
					c0.76-0.01,1.5-0.03,2.23-0.04c0.73-0.02,1.39-0.04,1.99-0.07c0.6-0.03,1.1-0.06,1.52-0.09c0.42-0.03,0.69-0.06,0.82-0.08
					l-0.32,1.84c-0.61-0.01-1.26-0.03-1.94-0.06c-0.58-0.02-1.24-0.04-1.99-0.06c-0.75-0.01-1.52-0.02-2.32-0.03v12.44
					c0,0.75,0.08,1.36,0.25,1.82c0.16,0.46,0.37,0.83,0.63,1.09c0.26,0.27,0.55,0.45,0.89,0.54
					C433.51,462,433.86,462.05,434.2,462.05z"/>
				<path class="st1" d="M456.79,451.67c0-1.03-0.02-1.92-0.04-2.68s-0.07-1.43-0.11-1.98c-0.04-0.55-0.09-1.02-0.16-1.39
					c-0.07-0.37-0.13-0.69-0.21-0.94v-0.07h4.18v0.07c-0.07,0.25-0.14,0.57-0.2,0.94c-0.06,0.37-0.12,0.84-0.16,1.39
					c-0.05,0.55-0.08,1.22-0.11,1.98c-0.02,0.76-0.03,1.66-0.03,2.68v4.37c0,1.03,0.01,1.92,0.03,2.68
					c0.02,0.76,0.06,1.43,0.11,1.98c0.05,0.55,0.1,1.02,0.16,1.39s0.13,0.69,0.2,0.94v0.07h-4.18v-0.07
					c0.07-0.25,0.14-0.56,0.21-0.94c0.07-0.37,0.12-0.84,0.16-1.39c0.04-0.55,0.08-1.22,0.11-1.98c0.03-0.76,0.04-1.66,0.04-2.68
					V451.67z M456.41,439.12c0-0.26,0.05-0.51,0.15-0.75c0.1-0.23,0.24-0.44,0.41-0.61c0.17-0.17,0.37-0.31,0.61-0.42
					c0.23-0.1,0.49-0.15,0.77-0.15s0.54,0.05,0.77,0.15c0.23,0.1,0.44,0.24,0.61,0.42c0.17,0.17,0.31,0.38,0.42,0.61
					c0.1,0.23,0.16,0.49,0.16,0.75c0,0.55-0.19,1.02-0.56,1.39c-0.37,0.37-0.84,0.56-1.39,0.56c-0.28,0-0.54-0.05-0.77-0.16
					c-0.23-0.1-0.44-0.24-0.61-0.41c-0.17-0.17-0.31-0.38-0.41-0.61C456.46,439.65,456.41,439.4,456.41,439.12z"/>
				<path class="st1" d="M527.13,441.16l-0.16,0.07c-0.94-0.87-2.07-1.56-3.39-2.08c-1.32-0.52-2.77-0.78-4.35-0.78
					c-1.52,0-2.91,0.24-4.18,0.71c-1.27,0.47-2.35,1.17-3.26,2.07c-0.91,0.9-1.62,2.01-2.13,3.33c-0.51,1.31-0.76,2.81-0.76,4.49
					c0,1.84,0.24,3.57,0.73,5.16c0.48,1.6,1.2,2.98,2.15,4.15c0.95,1.17,2.14,2.09,3.57,2.76c1.43,0.67,3.1,1,5,1
					c0.69,0,1.37-0.07,2.06-0.22c0.69-0.15,1.35-0.36,1.98-0.64s1.23-0.62,1.79-1.03c0.56-0.4,1.07-0.86,1.53-1.38l0.2,0.13
					l-1.45,3.69c-0.9,0.35-1.9,0.62-2.99,0.8c-1.09,0.18-2.19,0.28-3.3,0.28c-2.23,0-4.27-0.32-6.12-0.97
					c-1.85-0.65-3.44-1.56-4.78-2.74c-1.33-1.18-2.37-2.6-3.11-4.26c-0.74-1.66-1.11-3.5-1.11-5.52c0-1.14,0.15-2.27,0.44-3.38
					c0.3-1.11,0.73-2.16,1.29-3.16c0.57-1,1.27-1.92,2.1-2.76c0.83-0.84,1.78-1.56,2.85-2.18c1.07-0.61,2.24-1.09,3.53-1.44
					c1.28-0.35,2.67-0.51,4.17-0.51c2.33,0,4.49,0.36,6.47,1.07L527.13,441.16z"/>
				<path class="st1" d="M549.27,456.79c0,1.59,0.32,2.76,0.95,3.51c0.63,0.75,1.48,1.12,2.56,1.12c0.39,0,0.82-0.08,1.3-0.25
					s0.98-0.38,1.49-0.65c0.51-0.27,1.03-0.59,1.54-0.95c0.51-0.36,0.99-0.75,1.42-1.16c0.02-0.35,0.04-0.72,0.04-1.11
					s0-0.81,0-1.26v-4.37c0-1.03-0.02-1.92-0.04-2.68s-0.07-1.43-0.11-1.98c-0.04-0.55-0.09-1.02-0.16-1.39
					c-0.07-0.37-0.13-0.69-0.21-0.94v-0.07h4.18v0.07c-0.07,0.25-0.14,0.57-0.2,0.94c-0.06,0.37-0.12,0.84-0.16,1.39
					c-0.05,0.55-0.08,1.22-0.11,1.98c-0.02,0.76-0.03,1.66-0.03,2.68v4.37c0,1.03,0.01,1.92,0.03,2.68
					c0.02,0.76,0.06,1.43,0.11,1.98c0.05,0.55,0.1,1.02,0.16,1.39c0.06,0.37,0.13,0.69,0.2,0.94v0.07h-4.18v-0.07
					c0.07-0.3,0.15-0.69,0.23-1.15c0.08-0.47,0.13-1.08,0.17-1.85c-0.5,0.42-1.03,0.84-1.6,1.25c-0.57,0.41-1.17,0.78-1.79,1.1
					c-0.62,0.32-1.25,0.59-1.88,0.79c-0.63,0.2-1.26,0.3-1.87,0.3c-0.94,0-1.74-0.16-2.39-0.49c-0.66-0.32-1.19-0.75-1.61-1.28
					c-0.42-0.53-0.72-1.13-0.9-1.81c-0.19-0.68-0.28-1.37-0.28-2.08v-6.15c0-1.03-0.01-1.92-0.03-2.68
					c-0.02-0.76-0.06-1.43-0.11-1.98c-0.05-0.55-0.1-1.02-0.16-1.39c-0.06-0.37-0.13-0.69-0.2-0.94v-0.07h4.18v0.07
					c-0.07,0.25-0.14,0.57-0.2,0.94s-0.11,0.84-0.16,1.39c-0.05,0.55-0.08,1.22-0.11,1.98c-0.02,0.76-0.04,1.66-0.04,2.68v5.11
					H549.27z"/>
				<path class="st1" d="M582.19,451.67c0-1.03-0.02-1.92-0.04-2.68s-0.07-1.43-0.11-1.98c-0.04-0.55-0.09-1.02-0.16-1.39
					c-0.07-0.37-0.13-0.69-0.21-0.94v-0.07h4.18v0.07c-0.07,0.25-0.14,0.57-0.2,0.94c-0.06,0.37-0.12,0.84-0.16,1.39
					c-0.05,0.55-0.08,1.22-0.11,1.98c-0.02,0.76-0.03,1.66-0.03,2.68v4.37c0,1.03,0.01,1.92,0.03,2.68
					c0.02,0.76,0.06,1.43,0.11,1.98c0.05,0.55,0.1,1.02,0.16,1.39c0.06,0.37,0.13,0.69,0.2,0.94v0.07h-4.18v-0.07
					c0.07-0.25,0.14-0.56,0.21-0.94s0.12-0.84,0.16-1.39c0.04-0.55,0.08-1.22,0.11-1.98c0.03-0.76,0.04-1.66,0.04-2.68V451.67z
					 M581.81,439.12c0-0.26,0.05-0.51,0.15-0.75c0.1-0.23,0.24-0.44,0.41-0.61c0.17-0.17,0.37-0.31,0.61-0.42
					c0.23-0.1,0.49-0.15,0.77-0.15s0.54,0.05,0.77,0.15c0.23,0.1,0.44,0.24,0.61,0.42c0.17,0.17,0.31,0.38,0.42,0.61
					c0.1,0.23,0.16,0.49,0.16,0.75c0,0.55-0.19,1.02-0.56,1.39c-0.37,0.37-0.84,0.56-1.39,0.56c-0.28,0-0.54-0.05-0.77-0.16
					c-0.23-0.1-0.44-0.24-0.61-0.41c-0.17-0.17-0.31-0.38-0.41-0.61C581.86,439.65,581.81,439.4,581.81,439.12z"/>
				<path class="st1" d="M614,448.23l-0.25,0.03c-0.08-0.28-0.22-0.57-0.41-0.89c-0.19-0.31-0.43-0.6-0.73-0.87
					s-0.65-0.49-1.07-0.66c-0.42-0.18-0.89-0.26-1.44-0.26c-0.37,0-0.73,0.06-1.06,0.16c-0.33,0.11-0.62,0.27-0.87,0.48
					s-0.44,0.47-0.59,0.79c-0.15,0.31-0.22,0.68-0.22,1.1c0,0.59,0.18,1.16,0.55,1.69c0.37,0.54,0.83,1.07,1.38,1.59
					s1.16,1.05,1.8,1.58c0.65,0.53,1.24,1.08,1.8,1.66c0.55,0.58,1.02,1.19,1.38,1.85s0.55,1.37,0.55,2.13
					c0,0.61-0.11,1.22-0.32,1.8c-0.22,0.59-0.55,1.1-1,1.56s-1.03,0.83-1.74,1.11c-0.7,0.28-1.55,0.42-2.52,0.42
					c-0.58,0-1.12-0.06-1.62-0.16c-0.5-0.11-0.96-0.25-1.37-0.41c-0.41-0.16-0.79-0.35-1.12-0.54c-0.33-0.2-0.62-0.39-0.88-0.57
					l0.18-3.44h0.29c0.12,0.57,0.3,1.08,0.54,1.56c0.24,0.47,0.54,0.87,0.89,1.21c0.36,0.33,0.76,0.59,1.22,0.78
					c0.46,0.18,0.96,0.28,1.5,0.28c0.89,0,1.6-0.25,2.13-0.74c0.52-0.5,0.79-1.14,0.79-1.94c0-0.64-0.18-1.23-0.54-1.76
					c-0.36-0.54-0.8-1.05-1.34-1.55c-0.54-0.5-1.13-0.99-1.75-1.48c-0.62-0.5-1.21-1.02-1.75-1.58c-0.54-0.56-0.99-1.18-1.34-1.85
					s-0.54-1.43-0.54-2.29c0-0.7,0.13-1.34,0.39-1.93c0.26-0.59,0.62-1.08,1.08-1.5c0.46-0.42,1.02-0.74,1.66-0.97
					c0.64-0.23,1.34-0.35,2.1-0.35c1,0,1.84,0.11,2.51,0.32c0.67,0.21,1.18,0.41,1.53,0.61L614,448.23z"/>
				<path class="st1" d="M633.87,451.67c0-1.03-0.02-1.92-0.04-2.68s-0.07-1.43-0.11-1.98c-0.04-0.55-0.09-1.02-0.16-1.39
					c-0.07-0.37-0.13-0.69-0.21-0.94v-0.07h4.18v0.07c-0.07,0.25-0.14,0.57-0.2,0.94c-0.06,0.37-0.12,0.84-0.16,1.39
					c-0.05,0.55-0.08,1.22-0.11,1.98c-0.02,0.76-0.03,1.66-0.03,2.68v4.37c0,1.03,0.01,1.92,0.03,2.68
					c0.02,0.76,0.06,1.43,0.11,1.98c0.05,0.55,0.1,1.02,0.16,1.39c0.06,0.37,0.13,0.69,0.2,0.94v0.07h-4.18v-0.07
					c0.07-0.25,0.14-0.56,0.21-0.94s0.12-0.84,0.16-1.39c0.04-0.55,0.08-1.22,0.11-1.98c0.03-0.76,0.04-1.66,0.04-2.68V451.67z
					 M633.49,439.12c0-0.26,0.05-0.51,0.15-0.75c0.1-0.23,0.24-0.44,0.41-0.61c0.17-0.17,0.37-0.31,0.61-0.42
					c0.23-0.1,0.49-0.15,0.77-0.15c0.28,0,0.54,0.05,0.77,0.15c0.23,0.1,0.44,0.24,0.61,0.42c0.17,0.17,0.31,0.38,0.42,0.61
					c0.1,0.23,0.16,0.49,0.16,0.75c0,0.55-0.19,1.02-0.56,1.39c-0.37,0.37-0.84,0.56-1.39,0.56c-0.28,0-0.54-0.05-0.77-0.16
					c-0.23-0.1-0.44-0.24-0.61-0.41c-0.17-0.17-0.31-0.38-0.41-0.61C633.54,439.65,633.49,439.4,633.49,439.12z"/>
				<path class="st1" d="M669.95,450.93c0-1.59-0.32-2.76-0.96-3.51c-0.64-0.75-1.5-1.12-2.57-1.12c-0.39,0-0.82,0.08-1.3,0.25
					c-0.48,0.16-0.98,0.38-1.48,0.65s-1.01,0.59-1.52,0.95s-0.98,0.75-1.43,1.16l-0.04,2.37v4.37c0,1.03,0.01,1.92,0.04,2.68
					c0.02,0.76,0.06,1.43,0.11,1.98c0.05,0.55,0.1,1.02,0.16,1.39c0.06,0.37,0.13,0.69,0.2,0.94v0.07h-4.18v-0.07
					c0.07-0.25,0.14-0.56,0.21-0.94s0.12-0.84,0.16-1.39c0.04-0.55,0.08-1.22,0.11-1.98c0.03-0.76,0.04-1.66,0.04-2.68v-4.37
					c0-1.03-0.02-1.92-0.04-2.68s-0.07-1.43-0.11-1.98c-0.04-0.55-0.09-1.02-0.16-1.39c-0.07-0.37-0.13-0.69-0.21-0.94v-0.07h4.18
					v0.07c-0.09,0.3-0.17,0.69-0.23,1.15c-0.06,0.46-0.11,1.07-0.17,1.82c0.49-0.41,1.03-0.82,1.6-1.23
					c0.57-0.41,1.17-0.78,1.78-1.09c0.61-0.32,1.24-0.58,1.88-0.78c0.64-0.2,1.27-0.3,1.88-0.3c0.94,0,1.74,0.16,2.39,0.49
					c0.66,0.33,1.19,0.75,1.61,1.28c0.42,0.53,0.72,1.14,0.9,1.82c0.18,0.68,0.28,1.37,0.28,2.07v6.15c0,1.03,0.01,1.92,0.03,2.68
					c0.02,0.76,0.06,1.43,0.11,1.98c0.05,0.55,0.1,1.02,0.16,1.39c0.06,0.37,0.13,0.69,0.2,0.94v0.07h-4.18v-0.07
					c0.07-0.25,0.14-0.56,0.21-0.94s0.12-0.84,0.16-1.39c0.04-0.55,0.08-1.22,0.11-1.98c0.03-0.76,0.04-1.66,0.04-2.68v-5.13H669.95
					z"/>
				<path class="st1" d="M701.46,463.44c-1.34,0-2.59-0.21-3.76-0.63c-1.17-0.42-2.19-1.04-3.06-1.85
					c-0.87-0.81-1.55-1.82-2.05-3.02c-0.5-1.2-0.75-2.57-0.75-4.11c0-1.36,0.23-2.62,0.69-3.79c0.46-1.16,1.09-2.17,1.9-3.03
					c0.81-0.85,1.75-1.52,2.83-2.01c1.08-0.48,2.24-0.73,3.5-0.73c1.24,0,2.39,0.21,3.45,0.64s1.98,1.05,2.76,1.86
					s1.39,1.82,1.85,3.02s0.7,2.57,0.73,4.1c-1.36-0.02-2.72-0.04-4.09-0.06c-1.36-0.01-2.78-0.02-4.25-0.02
					c-1.05,0-2.07,0.01-3.06,0.02c-0.99,0.01-1.89,0.03-2.68,0.06c0.07,1.26,0.27,2.39,0.59,3.4c0.32,1.02,0.76,1.88,1.32,2.59
					c0.56,0.72,1.24,1.27,2.04,1.66c0.8,0.39,1.71,0.58,2.72,0.58c0.7,0,1.36-0.08,1.98-0.25c0.62-0.16,1.18-0.39,1.69-0.68
					c0.51-0.29,0.96-0.63,1.36-1.02s0.74-0.81,1.01-1.28l0.22,0.11l-1.34,3.22c-0.65,0.33-1.43,0.62-2.33,0.86
					C703.8,463.33,702.72,463.44,701.46,463.44z M699.05,452.41c1.21,0,2.42,0,3.63-0.01c1.21-0.01,2.31-0.03,3.3-0.06
					c-0.11-1.05-0.31-1.99-0.61-2.82c-0.3-0.83-0.69-1.54-1.16-2.11c-0.47-0.58-1.03-1.03-1.66-1.34c-0.64-0.31-1.34-0.47-2.11-0.47
					c-0.7,0-1.34,0.15-1.93,0.46c-0.59,0.31-1.09,0.75-1.53,1.33c-0.44,0.58-0.78,1.28-1.05,2.13c-0.27,0.84-0.42,1.79-0.47,2.87
					c0.54,0.02,1.12,0.03,1.72,0.03C697.77,452.41,698.4,452.41,699.05,452.41z"/>
			</g>
		</g>
	</g>
	<g>
		<path class="st2" d="M560.69,227.43v9.4h25.86c-0.68,15.24-4.31,28.5-10.91,39.77c-6.6,11.27-15.42,19.94-26.43,26.04
			c-11,6.1-23.28,9.15-36.84,9.15c-3.45,0-6.84-0.19-10.12-0.59c-5.7-0.69-11.15-1.96-16.36-3.83c-4.02-1.43-7.91-3.22-11.63-5.36
			c-11.35-6.52-20.34-15.88-26.94-28.08c-6.6-12.2-9.9-26.43-9.9-42.69c0-16.25,3.3-30.49,9.9-42.69s15.58-21.6,26.94-28.2
			c11.35-6.61,24.06-9.9,38.1-9.9c16.11,0,30.03,3.97,41.81,11.95c1.91,1.28,3.72,2.65,5.45,4.08l11.59-4.54
			c-2.84-2.65-5.89-5.07-9.15-7.3c-13.98-9.57-30.53-14.34-49.69-14.34c-16.43,0-31.25,3.85-44.46,11.54
			c-13.21,7.72-23.55,18.46-31,32.28c-7.47,13.79-11.19,29.51-11.19,47.13c0,17.45,3.72,33.08,11.19,46.88
			c7.44,13.82,17.79,24.56,31,32.28c13.21,7.69,28.03,11.54,44.46,11.54c16.11,0,30.58-3.72,43.47-11.17
			c12.87-7.47,23.03-17.79,30.47-31c7.47-13.23,11.44-28.12,11.95-44.73v-7.61L560.69,227.43L560.69,227.43z"/>
		<polygon class="st2" points="571.33,161.89 571.2,161.93 571.22,161.97 		"/>
		<path class="st2" d="M530.93,238.66c5.06-4.36,9.93-8.94,14.83-13.49c0.32-0.3,0.64-0.59,0.95-0.88l1.52-1.32l-0.84-1.09
			c-5.02,4.09-10.17,8.31-15.19,12.4c-0.3-0.35-0.6-0.69-0.9-1.04c4.78-4.49,10.06-8.48,14.91-12.9l-0.75-0.99
			c-5.13,4.1-10.26,8.21-15.38,12.31c-0.29-0.37-0.59-0.73-0.88-1.1c5.11-4.15,10.21-8.29,15.32-12.44l-0.78-1.02
			c-5.28,3.97-10.56,7.93-15.83,11.9c-0.25-0.33-0.55-0.7-0.8-1.03c0.57-0.52,1.2-1,1.79-1.5l6.75-5.38
			c0.69-0.54,1.37-1.08,2.05-1.63c0,0,0.45-0.36,0.46-0.37c0.38-0.31,0.75-0.63,1.12-0.95l-0.06,0.06l3.21-2.69l0.06-0.05
			l-0.64-0.83l-2.86,2.01c-0.03,0.02-0.06,0.04-0.09,0.06l-3.32,2.35c0,0-12.57,8.69-12.57,8.7c-2.47,1.55-3.98,3.63-4.73,6.46
			c-1.12,4.2-4.11,7.02-7.47,9.88l-0.79,0.56c-0.51-4.44,0.53-8.01,3.23-11.01c1.7-1.89,3.63-3.58,5.44-5.37
			c5.61-5.52,7.84-12.35,6.65-19.96c-1.23-7.88-3.13-15.66-4.89-23.45c-0.17-0.76-1.28-1.72-2.09-1.87
			c-6.8-1.26-13.64-1.27-20.44,0.02c-0.84,0.16-1.95,1.26-2.15,2.11c-1.5,6.14-2.81,12.32-4.17,18.49
			c-2.36,10.64-0.21,19.83,8.45,27.08c1.79,1.5,3.39,3.38,4.56,5.38c0.47,0.8,0.78,1.69,1.04,2.61l0.57,3.88l-0.37-0.3
			c-6.57-5.13-13.1-10.3-19.73-15.36c-3.98-3.04-8.09-5.91-12.19-8.79c-0.55-0.38-1.93-1.46-2.91-1.18
			c-1.7,0.48-0.72,2.57-0.45,3.16c0.84,1.91,2.67,3.81,4.05,5.31c2.44,2.67,4.92,5.32,7.41,7.95l19.07,17.61
			c0,0-9.12,6.47-9.13,6.47c-1.28,0.84-2.54,1.69-3.78,2.57c-2.63,1.88-5.21,3.83-7.74,5.83c-3.21,2.53-6.61,4.93-8.93,8.36
			c-0.86,1.27-1.85,3.86,0.26,4.5c1.34,0.41,3.01-0.13,4.24-0.69c2.8-1.28,5.14-3.41,7.5-5.33c2.51-2.04,4.99-4.12,7.43-6.27
			c0.56-0.49,1.12-0.99,1.67-1.48c2.42-2.18,4.77-4.49,7.21-6.92l4.44-4.15l1.7,0.54c0.07,0.01,0.13,0.28,0.14,0.32
			c0.1,0.4,0.12,0.81,0.14,1.22c0.06,1.22,0.1,2.42,0.11,3.64c0.01,2.76-0.07,5.51,0.03,8.27c0.11,2.92-1.3,4.77-3.83,5.64
			c-3.12,1.07-6.38,1.61-9.62,2.2c-1.36,0.25-6.58,0.69-6.58,2.81c0,2.24,9.51,4.05,21.25,4.05c11.73,0,21.25-1.81,21.25-4.05
			c0-0.75-0.94-1.23-1.51-1.5c-1.87-0.89-3.96-1.18-5.96-1.61c-0.84-0.18-1.67-0.36-2.51-0.54c-1.41-0.3-2.84-0.55-4.22-0.98
			c-1.04-0.33-2.06-0.82-2.91-1.52c-0.63-0.52-1.24-1.18-1.52-1.96c-0.15-0.42-0.13-0.84-0.13-1.28c0-0.55,0-1.09,0-1.63
			c0-1.66,0-3.31,0-4.97c0-1.38,0.04-2.77,0.01-4.15c-0.01-0.16,0-0.31,0.01-0.46v-2.94c0,0,2.23,0.78,2.26,0.79
			c5.85,2.04,9.66,7.54,14.32,11.32c4.93,3.99,8.68,7.48,12.95,11.3c0.46,0.41,0.95,0.8,1.48,1.12c0.85,0.51,1.82,0.81,2.81,0.56
			c1.35-0.34,2.25-1.55,2.49-2.88c0.26-1.23-0.61-2.8-1.37-3.76c-1.16-1.47-2.7-2.54-4.1-3.77c-0.3-0.26-0.6-0.51-0.89-0.76
			c-3.15-2.68-6.57-5.03-9.84-7.57c-3.59-2.73-7.18-5.45-10.75-8.19c-2.43-1.86-4.81-3.79-7.34-5.79l1.42-1.24
			c0,0-1.55,1.14-1.57,1.12c4.34-3.15,8.35-5.78,13.65-5.94C527.44,241.2,529.48,239.92,530.93,238.66z M498.61,197.77
			c-0.81,4.21-2.11,8.4-2.28,12.63c-0.18,4.45,0.74,8.93,1.12,12.89c-2.85-4.2-3.96-9.53-3.1-15.08c1.04-6.74,2.58-13.4,4-20.08
			c0-0.01,0.01-0.02,0.01-0.03c0.23-1.06,1.39-1.75,2.37-1.28c0.01,0,0.01,0.01,0.01,0.01
			C500.04,190.48,499.32,194.12,498.61,197.77z"/>
	</g>
</g>
</svg>
